<svg width="14" height="14" viewBox="0 0 14 14" fill="none" xmlns="http://www.w3.org/2000/svg">
<path d="M2.00012 0C0.895553 0 0.00012207 0.89543 0.00012207 2V4C0.00012207 5.10457 0.895553 6 2.00012 6H4.00012C5.10469 6 6.00012 5.10457 6.00012 4V2C6.00012 0.895431 5.10469 0 4.00012 0H2.00012Z" fill="#EC103F"/>
<path d="M2.00012 8C0.895553 8 0.00012207 8.89543 0.00012207 10V12C0.00012207 13.1046 0.895553 14 2.00012 14H4.00012C5.10469 14 6.00012 13.1046 6.00012 12V10C6.00012 8.89543 5.10469 8 4.00012 8H2.00012Z" fill="#EC103F"/>
<path d="M8.00012 2C8.00012 0.89543 8.89555 0 10.0001 0H12.0001C13.1047 0 14.0001 0.895431 14.0001 2V4C14.0001 5.10457 13.1047 6 12.0001 6H10.0001C8.89555 6 8.00012 5.10457 8.00012 4V2Z" fill="#EC103F"/>
<path d="M11.0001 8C11.5524 8 12.0001 8.44771 12.0001 9V10H13.0001C13.5524 10 14.0001 10.4477 14.0001 11C14.0001 11.5523 13.5524 12 13.0001 12H12.0001V13C12.0001 13.5523 11.5524 14 11.0001 14C10.4478 14 10.0001 13.5523 10.0001 13V12H9.00012C8.44784 12 8.00012 11.5523 8.00012 11C8.00012 10.4477 8.44784 10 9.00012 10H10.0001V9C10.0001 8.44771 10.4478 8 11.0001 8Z" fill="#EC103F"/>
</svg>
